<?xml version="1.0" encoding="utf-8"?>
<!-- Generator: Adobe Illustrator 19.2.1, SVG Export Plug-In . SVG Version: 6.00 Build 0)  -->
<svg version="1.1" id="Layer_1" xmlns="http://www.w3.org/2000/svg" xmlns:xlink="http://www.w3.org/1999/xlink" x="0px" y="0px"
	 viewBox="0 0 90 90" style="enable-background:new 0 0 90 90;" xml:space="preserve">
<style type="text/css">
	.st0{fill:#808080;}
</style>
<g>
	<path class="st0" d="M27.8,50.2h16.9L38,54.1c-2.5,1.4-3.3,4.6-1.9,7.1c1.4,2.5,4.6,3.3,7.1,1.9l23.1-13.3c1.6-0.9,2.6-2.6,2.6-4.5
		s-1-3.6-2.6-4.5L43.2,27.4c-0.8-0.5-1.7-0.7-2.6-0.7c-1.8,0-3.5,0.9-4.5,2.6c-1.4,2.5-0.6,5.7,1.9,7.1l5.9,3.4h-16
		c-2.9,0-5.2,2.3-5.2,5.2C22.6,47.9,25,50.2,27.8,50.2z"/>
	<path class="st0" d="M45,90c24.8,0,45-20.2,45-45S69.8,0,45,0S0,20.2,0,45S20.2,90,45,90z M45,10.4c19.1,0,34.6,15.5,34.6,34.6
		S64.1,79.6,45,79.6S10.4,64.1,10.4,45S25.9,10.4,45,10.4z"/>
</g>
</svg>
