<?xml version="1.0" encoding="utf-8"?>
<!-- Generator: Adobe Illustrator 19.2.1, SVG Export Plug-In . SVG Version: 6.00 Build 0)  -->
<svg version="1.1" id="Layer_1" xmlns="http://www.w3.org/2000/svg" xmlns:xlink="http://www.w3.org/1999/xlink" x="0px" y="0px"
	 viewBox="0 0 90 90" style="enable-background:new 0 0 90 90;" xml:space="preserve">
<style type="text/css">
	.st0{fill:#FF0080;}
</style>
<g>
	<path class="st0" d="M22.6,45c0,2.9,2.3,5.2,5.2,5.2h16L38,53.6c-2.5,1.4-3.3,4.6-1.9,7.1c1,1.7,2.7,2.6,4.5,2.6
		c0.9,0,1.8-0.2,2.6-0.7l23.1-13.3c1.6-0.9,2.6-2.6,2.6-4.5s-1-3.6-2.6-4.5L43.2,26.9c-2.5-1.4-5.7-0.6-7.1,1.9
		c-1.4,2.5-0.6,5.7,1.9,7.1l6.7,3.9H27.8C25,39.8,22.6,42.1,22.6,45z"/>
	<path class="st0" d="M0,45c0,24.8,20.2,45,45,45s45-20.2,45-45S69.8,0,45,0S0,20.2,0,45z M10.4,45c0-19.1,15.5-34.6,34.6-34.6
		S79.6,25.9,79.6,45S64.1,79.6,45,79.6S10.4,64.1,10.4,45z"/>
</g>
</svg>
