<?xml version="1.0" encoding="utf-8"?>
<!-- Generator: Adobe Illustrator 19.2.1, SVG Export Plug-In . SVG Version: 6.00 Build 0)  -->
<svg version="1.1" id="Layer_1" xmlns="http://www.w3.org/2000/svg" xmlns:xlink="http://www.w3.org/1999/xlink" x="0px" y="0px"
	 viewBox="0 0 50 85" style="enable-background:new 0 0 50 85;" xml:space="preserve">
<style type="text/css">
	.st0{fill:#C28000;}
</style>
<g>
	<path class="st0" d="M25,5.5c-10.6,0-19.2,7-19.2,15.6V64c0,8.6,8.6,15.6,19.2,15.6c10.6,0,19.2-7,19.2-15.6V21
		C44.2,12.4,35.6,5.5,25,5.5z M25,71c-4.8,0-8.8-3.6-8.8-7.9c0-4.4,3.9-7.9,8.8-7.9c4.8,0,8.8,3.6,8.8,7.9C33.8,67.5,29.8,71,25,71z
		 M25,50.4c-4.8,0-8.8-3.6-8.8-7.9c0-4.4,3.9-7.9,8.8-7.9c4.8,0,8.8,3.6,8.8,7.9C33.8,46.9,29.8,50.4,25,50.4z M25,29.8
		c-4.8,0-8.8-3.6-8.8-7.9c0-4.4,3.9-7.9,8.8-7.9s8.8,3.6,8.8,7.9C33.8,26.3,29.8,29.8,25,29.8z"/>
	<path class="st0" d="M25,0C11.2,0,0,8,0,17.9v49.2C0,77,11.2,85,25,85s25-8,25-17.9V17.9C50,8,38.8,0,25,0z M46.5,65
		c0,9-9.6,16.3-21.5,16.3C13.1,81.4,3.5,74,3.5,65V20c0-9,9.6-16.3,21.5-16.3C36.9,3.6,46.5,11,46.5,20V65z"/>
</g>
<circle class="st0" cx="25" cy="21.6" r="6.2"/>
</svg>
