<svg xmlns="http://www.w3.org/2000/svg" xmlns:xlink="http://www.w3.org/1999/xlink" version="1.1" x="0px" y="0px" viewBox="0 0 60 112.5" enable-background="new 0 0 60 90" xml:space="preserve"><g><path d="M30,9.318c-9.372,0-16.97,6.804-16.97,15.195v41.855c0,8.391,7.599,15.195,16.97,15.195   c9.373,0,16.972-6.805,16.972-15.195V24.514C46.972,16.123,39.373,9.318,30,9.318z M30,73.276c-4.278,0-7.747-3.468-7.747-7.748   c0-4.278,3.469-7.746,7.747-7.746c4.279,0,7.746,3.468,7.746,7.746C37.746,69.809,34.279,73.276,30,73.276z M30,53.188   c-4.278,0-7.747-3.468-7.747-7.747c0-4.278,3.469-7.746,7.747-7.746c4.279,0,7.746,3.468,7.746,7.746   C37.746,49.721,34.279,53.188,30,53.188z M30,33.102c-4.278,0-7.747-3.47-7.747-7.748c0-4.277,3.469-7.746,7.747-7.746   c4.278,0,7.748,3.469,7.748,7.746C37.748,29.632,34.278,33.102,30,33.102z"/><path d="M30,4C17.806,4,7.917,11.804,7.917,21.432V69.45c0,9.632,9.888,17.434,22.083,17.434c12.195,0,22.083-7.802,22.083-17.434   V21.432C52.083,11.804,42.195,4,30,4z M48.99,67.396c0,8.808-8.502,15.942-18.99,15.942c-10.487,0-18.989-7.135-18.989-15.942   V23.486c0-8.804,8.502-15.942,18.989-15.942c10.488,0,18.99,7.138,18.99,15.942V67.396z"/></g><circle cx="30.001" cy="25.355" r="6.201"/><text x="0" y="105" fill="#000000" font-size="5px" font-weight="bold" font-family="'Helvetica Neue', Helvetica, Arial-Unicode, Arial, Sans-serif">Created by Jonathan Li</text><text x="0" y="110" fill="#000000" font-size="5px" font-weight="bold" font-family="'Helvetica Neue', Helvetica, Arial-Unicode, Arial, Sans-serif">from the Noun Project</text></svg>