<svg xmlns="http://www.w3.org/2000/svg" xmlns:xlink="http://www.w3.org/1999/xlink" version="1.1" x="0px" y="0px" viewBox="0 0 100 125" enable-background="new 0 0 100 100" xml:space="preserve"><g><path d="M66,45H49.803l6.416-3.705c2.392-1.381,3.211-4.439,1.83-6.83c-1.382-2.392-4.438-3.211-6.83-1.83L29.04,45.442   c-1.547,0.894-2.5,2.544-2.5,4.33s0.953,3.437,2.5,4.33L51.219,66.91c0.787,0.455,1.646,0.671,2.495,0.671   c1.728,0,3.408-0.896,4.335-2.501c1.381-2.391,0.562-5.449-1.83-6.83L50.591,55H66c2.762,0,5-2.238,5-5S68.762,45,66,45z"/><path d="M49.53,6.787C25.702,6.787,6.317,26.172,6.317,50S25.702,93.213,49.53,93.213S92.744,73.828,92.744,50   S73.358,6.787,49.53,6.787z M49.53,83.213c-18.313,0-33.213-14.899-33.213-33.213S31.217,16.787,49.53,16.787   c18.314,0,33.214,14.899,33.214,33.213S67.845,83.213,49.53,83.213z"/></g><text x="0" y="115" fill="#000000" font-size="5px" font-weight="bold" font-family="'Helvetica Neue', Helvetica, Arial-Unicode, Arial, Sans-serif">Created by Filippo Gianessi</text><text x="0" y="120" fill="#000000" font-size="5px" font-weight="bold" font-family="'Helvetica Neue', Helvetica, Arial-Unicode, Arial, Sans-serif">from the Noun Project</text></svg>