<svg xmlns="http://www.w3.org/2000/svg" xmlns:xlink="http://www.w3.org/1999/xlink" version="1.1" x="0px" y="0px" viewBox="0 0 100 125" enable-background="new 0 0 100 100" xml:space="preserve"><g><path d="M65.3,7.4H34.7c-5.3,0-9.6,4.2-9.6,9.3v66.7c0,5.1,4.3,9.3,9.6,9.3h30.6c5.3,0,9.6-4.2,9.6-9.3V16.7   C74.9,11.5,70.6,7.4,65.3,7.4z M69.4,83.3c0,2.1-1.9,3.8-4.2,3.8H34.7c-2.3,0-4.2-1.7-4.2-3.8V16.7c0-2.1,1.9-3.8,4.2-3.8h30.6   c2.3,0,4.2,1.7,4.2,3.8V83.3z"/><path d="M50,16.2c-5.8,0-10.5,4.7-10.5,10.5c0,5.8,4.7,10.5,10.5,10.5c5.8,0,10.5-4.7,10.5-10.5C60.5,20.9,55.8,16.2,50,16.2z    M50,33.5c-3.8,0-6.8-3.1-6.8-6.8c0-3.8,3.1-6.8,6.8-6.8c3.8,0,6.8,3.1,6.8,6.8C56.8,30.5,53.8,33.5,50,33.5z"/><path d="M50,39.4c-5.8,0-10.5,4.7-10.5,10.5c0,5.8,4.7,10.5,10.5,10.5c5.8,0,10.5-4.7,10.5-10.5C60.5,44.1,55.8,39.4,50,39.4z    M50,56.7c-3.8,0-6.8-3.1-6.8-6.8c0-3.8,3.1-6.8,6.8-6.8c3.8,0,6.8,3.1,6.8,6.8C56.8,53.6,53.8,56.7,50,56.7z"/><path d="M50,62.6c-5.8,0-10.5,4.7-10.5,10.5c0,5.8,4.7,10.5,10.5,10.5c5.8,0,10.5-4.7,10.5-10.5C60.5,67.3,55.8,62.6,50,62.6z"/></g><text x="0" y="115" fill="#000000" font-size="5px" font-weight="bold" font-family="'Helvetica Neue', Helvetica, Arial-Unicode, Arial, Sans-serif">Created by Michal Beno</text><text x="0" y="120" fill="#000000" font-size="5px" font-weight="bold" font-family="'Helvetica Neue', Helvetica, Arial-Unicode, Arial, Sans-serif">from the Noun Project</text></svg>