<?xml version="1.0" encoding="utf-8"?>
<!-- Generator: Adobe Illustrator 19.2.1, SVG Export Plug-In . SVG Version: 6.00 Build 0)  -->
<svg version="1.1" id="Layer_1" xmlns="http://www.w3.org/2000/svg" xmlns:xlink="http://www.w3.org/1999/xlink" x="0px" y="0px"
	 viewBox="0 0 90 90" style="enable-background:new 0 0 90 90;" xml:space="preserve">
<style type="text/css">
	.st0{fill:#0080FF;}
</style>
<g>
	<path class="st0" d="M62.2,39.8H45.3l6.7-3.9c2.5-1.4,3.3-4.6,1.9-7.1c-1.4-2.5-4.6-3.3-7.1-1.9L23.7,40.3
		c-1.6,0.9-2.6,2.6-2.6,4.5s1,3.6,2.6,4.5l23.1,13.3c0.8,0.5,1.7,0.7,2.6,0.7c1.8,0,3.5-0.9,4.5-2.6c1.4-2.5,0.6-5.7-1.9-7.1
		l-5.9-3.4h16c2.9,0,5.2-2.3,5.2-5.2C67.4,42.1,65,39.8,62.2,39.8z"/>
	<path class="st0" d="M45,0C20.2,0,0,20.2,0,45s20.2,45,45,45s45-20.2,45-45S69.8,0,45,0z M45,79.6c-19.1,0-34.6-15.5-34.6-34.6
		S25.9,10.4,45,10.4S79.6,25.9,79.6,45S64.1,79.6,45,79.6z"/>
</g>
</svg>
