<?xml version="1.0" encoding="utf-8"?>
<!-- Generator: Adobe Illustrator 19.2.1, SVG Export Plug-In . SVG Version: 6.00 Build 0)  -->
<svg version="1.1" id="Layer_1" xmlns="http://www.w3.org/2000/svg" xmlns:xlink="http://www.w3.org/1999/xlink" x="0px" y="0px"
	 viewBox="0 0 99 45" style="enable-background:new 0 0 99 45;" xml:space="preserve">
<style type="text/css">
	.st0{fill:#7F7F7F;}
</style>
<g>
	<path class="st0" d="M31.5,29.1l18.4-4.3l-6.8,3.4c-2.5,1.3-3,2.8-1.1,3.5c1.9,0.7,5.5,0.3,8-1l23.5-11.6c1.6-0.8,2.5-1.8,2.2-2.6
		c-0.2-0.8-1.6-1.3-3.4-1.3l-27,0.2c-1,0-2,0.1-2.9,0.4c-2,0.5-3.8,1.3-4.6,2.3c-1.2,1.4,0.1,2.6,3,2.6l6.8,0l-17.5,4.1
		c-3.1,0.7-5.4,2.3-5,3.6C25.5,29.5,28.3,29.9,31.5,29.1z"/>
	<path class="st0" d="M55.4,41.8c27.1-6.3,46.5-20.2,43.2-30.9s-28-14.2-55.1-7.8S-2.9,23.4,0.4,34S28.3,48.2,55.4,41.8z M44.9,7.6
		c20.8-4.9,39.8-2.2,42.3,6S74.9,32.5,54.1,37.4c-20.8,4.9-39.8,2.2-42.3-6S24.1,12.5,44.9,7.6z"/>
</g>
</svg>
