<?xml version="1.0" encoding="utf-8"?>
<!-- Generator: Adobe Illustrator 19.2.1, SVG Export Plug-In . SVG Version: 6.00 Build 0)  -->
<svg version="1.1" id="Layer_1" xmlns="http://www.w3.org/2000/svg" xmlns:xlink="http://www.w3.org/1999/xlink" x="0px" y="0px"
	 viewBox="0 0 99 45" style="enable-background:new 0 0 99 45;" xml:space="preserve">
<style type="text/css">
	.st0{fill:#7F7F7F;}
</style>
<g>
	<path class="st0" d="M67.5,15.9l-18.4,4.3l6.8-3.4c2.5-1.3,3-2.8,1.1-3.5c-1.9-0.7-5.5-0.3-8,1L25.6,25.9c-1.6,0.8-2.5,1.8-2.2,2.6
		s1.6,1.3,3.4,1.3l27-0.2c1,0,2-0.1,2.9-0.4c2-0.5,3.8-1.3,4.6-2.3c1.2-1.4-0.1-2.6-3-2.6l-6.8,0l17.5-4.1c3.1-0.7,5.4-2.3,5-3.6
		C73.5,15.5,70.7,15.1,67.5,15.9z"/>
	<path class="st0" d="M43.6,3.2C16.5,9.5-2.9,23.4,0.4,34s28,14.2,55.1,7.8S101.9,21.6,98.6,11C95.4,0.3,70.7-3.2,43.6,3.2z
		 M54.1,37.4c-20.8,4.9-39.8,2.2-42.3-6S24.1,12.5,44.9,7.6c20.8-4.9,39.8-2.2,42.3,6S74.9,32.5,54.1,37.4z"/>
</g>
</svg>
